<svg width="1440" height="690" viewBox="0 0 1440 690" fill="none" xmlns="http://www.w3.org/2000/svg">
<g clip-path="url(#clip0_6_626)">
<rect width="1440" height="860" fill="#F9F3FF"/>
<g opacity="0.1">
<path d="M836.201 973.92C836.201 973.92 762.921 888.403 786.281 816.977C809.412 746.327 843.07 693.584 943.076 716.276C1054.77 741.622 1127.18 843.012 1184.51 883.622C1224.98 893.819 1233.05 938.173 1229.93 946.646" stroke="#693B93" stroke-miterlimit="10"/>
<path d="M805.502 973.12C805.502 973.12 713.929 870.697 747.642 788.271C781.076 706.484 825.211 648.594 945.855 685.194C1076.73 724.945 1149.2 834.09 1214.02 867.26C1262.88 871.681 1270.96 922.883 1268.01 930.894" stroke="#693B93" stroke-miterlimit="10"/>
<path d="M774.764 972.305C774.764 972.305 664.943 852.965 709.004 759.477C752.774 666.582 804.86 611.346 948.596 654.054C1101.59 699.519 1171.18 825.134 1243.49 850.884C1300.77 849.541 1308.82 907.586 1306.04 915.122" stroke="#693B93" stroke-miterlimit="10"/>
<path d="M744.074 971.51C744.074 971.51 615.985 835.274 670.388 730.738C724.531 626.79 789.845 558.074 951.369 622.941C1120.99 691.086 1191.29 829.687 1273 834.479C1338.9 838.334 1346.72 892.266 1344.12 899.327" stroke="#693B93" stroke-miterlimit="10"/>
<path d="M713.323 970.691C713.323 970.691 567.209 817.679 631.728 701.965C696.393 586.992 772.237 512.71 954.088 591.822C1143.23 674.088 1214.54 820.225 1302.46 818.072C1377.56 816.23 1384.62 876.958 1382.19 883.557" stroke="#693B93" stroke-miterlimit="10"/>
<path d="M682.647 969.9C682.647 969.9 518.203 800.042 593.088 673.215C668.085 547.145 754.702 467.343 956.838 560.698C1165.52 657.078 1237.53 810.538 1331.93 801.682C1416.07 793.793 1422.45 861.635 1420.19 867.758" stroke="#693B93" stroke-miterlimit="10"/>
<path d="M651.884 969.077C651.884 969.077 469.245 782.277 554.411 644.453C639.751 507.291 737.156 421.93 959.536 529.558C1187.82 640.044 1260.22 800.711 1361.38 785.285C1454.35 771.113 1460.29 846.322 1458.21 851.971" stroke="#693B93" stroke-miterlimit="10"/>
<path d="M621.225 968.277C621.225 968.277 420.313 764.594 515.859 615.735C611.536 467.464 719.766 376.559 962.369 498.481C1210.26 623.047 1282.83 790.865 1390.94 768.928C1492.55 748.255 1498.22 831.023 1496.31 836.209" stroke="#693B93" stroke-miterlimit="10"/>
<path d="M590.448 967.448C590.448 967.448 371.28 746.874 477.164 586.979C583.172 427.612 702.255 331.129 965.062 467.352C1232.57 606.003 1305.11 780.915 1420.39 752.529C1530.57 725.389 1536.09 815.718 1534.36 820.429" stroke="#693B93" stroke-miterlimit="10"/>
<path d="M559.798 966.666C559.798 966.666 322.285 729.167 438.529 558.216C554.869 387.753 684.816 285.696 967.811 436.229C1254.96 588.957 1327.28 770.997 1449.86 736.14C1568.47 702.406 1573.95 800.408 1572.39 804.645" stroke="#693B93" stroke-miterlimit="10"/>
<path d="M529.008 965.833C529.008 965.833 273.302 711.467 399.889 529.467C526.576 347.942 667.39 240.269 970.56 405.107C1277.36 571.917 1349.34 761.081 1479.34 719.751C1606.28 679.391 1611.75 785.137 1610.39 788.847" stroke="#693B93" stroke-miterlimit="10"/>
<path d="M498.296 965.028C498.296 965.028 224.32 693.766 361.263 500.722C498.257 308.048 649.982 194.833 973.322 373.989C1299.79 554.886 1371.32 751.178 1508.84 703.372C1644.04 656.357 1649.71 769.792 1648.5 773.091" stroke="#693B93" stroke-miterlimit="10"/>
<path d="M467.569 964.218C467.569 964.218 175.342 676.052 322.622 471.973C469.96 268.207 632.56 149.393 976.052 342.875C1322.2 537.837 1393.18 741.277 1538.31 686.939C1681.72 633.29 1687.58 754.457 1686.54 757.282" stroke="#693B93" stroke-miterlimit="10"/>
<path d="M436.856 963.412C436.856 963.412 126.36 658.35 283.983 443.222C441.657 228.347 615.164 103.961 978.802 311.751C1344.62 520.801 1414.99 731.4 1567.82 670.594C1719.37 610.273 1725.46 739.23 1724.61 741.541" stroke="#693B93" stroke-miterlimit="10"/>
<path d="M406.129 962.603C406.129 962.603 77.377 640.649 245.362 414.422C413.346 188.194 597.779 58.4611 981.569 280.578C1367.08 503.697 1436.77 721.483 1597.28 654.14C1756.94 587.169 1763.34 723.809 1762.66 725.645" stroke="#693B93" stroke-miterlimit="10"/>
<path d="M375.416 961.797C375.416 961.797 28.3953 622.948 206.708 385.71C385.021 148.473 580.374 13.0552 984.3 249.506C1389.5 486.691 1458.46 711.663 1626.75 637.793C1794.48 564.154 1801.18 708.539 1800.66 709.951" stroke="#693B93" stroke-miterlimit="10"/>
<path d="M344.69 960.988C344.69 960.988 -20.606 605.298 168.064 356.974C356.734 108.649 563.315 -32.9364 987.035 218.422C1412.26 469.112 1480.13 701.852 1656.18 621.403C1831.97 541.12 1839.03 693.225 1838.68 694.175" stroke="#693B93" stroke-miterlimit="10"/>
<path d="M313.968 960.165C313.968 960.165 -69.5558 587.507 129.424 328.224C328.403 68.941 545.777 -78.099 989.788 187.287C1434.5 452.335 1501.76 692.026 1685.7 605.033C1869.64 518.041 1876.95 677.94 1876.77 678.415" stroke="#693B93" stroke-miterlimit="10"/>
<path d="M283.255 959.359C283.255 959.359 -118.567 569.882 90.7837 299.474C300.134 29.0648 528.226 -123.267 992.536 156.164C1456.85 435.595 1523.37 682.22 1715.17 588.643C1906.98 495.066 1914.82 662.634 1914.82 662.634" stroke="#693B93" stroke-miterlimit="10"/>
</g>
</g>
<defs>
<clipPath id="clip0_6_626">
<rect width="1440" height="690" fill="white"/>
</clipPath>
</defs>
</svg>
