<svg width="121" height="79" viewBox="0 0 121 79" fill="none" xmlns="http://www.w3.org/2000/svg">
<g opacity="0.3">
<circle cx="1.77612" cy="1.77612" r="1.77612" fill="#693B93"/>
<circle cx="12.4329" cy="1.77612" r="1.77612" fill="#693B93"/>
<circle cx="23.0895" cy="1.77612" r="1.77612" fill="#693B93"/>
<circle cx="33.7463" cy="1.77612" r="1.77612" fill="#693B93"/>
<circle cx="44.403" cy="1.77612" r="1.77612" fill="#693B93"/>
<circle cx="55.0597" cy="1.77612" r="1.77612" fill="#693B93"/>
<circle cx="65.7164" cy="1.77612" r="1.77612" fill="#693B93"/>
<circle cx="76.3732" cy="1.77612" r="1.77612" fill="#693B93"/>
<circle cx="87.0298" cy="1.77612" r="1.77612" fill="#693B93"/>
<circle cx="97.6866" cy="1.77612" r="1.77612" fill="#693B93"/>
<circle cx="108.343" cy="1.77612" r="1.77612" fill="#693B93"/>
<circle cx="119" cy="1.77612" r="1.77612" fill="#693B93"/>
<circle cx="1.77612" cy="12.4328" r="1.77612" fill="#693B93"/>
<circle cx="12.4329" cy="12.4328" r="1.77612" fill="#693B93"/>
<circle cx="23.0895" cy="12.4328" r="1.77612" fill="#693B93"/>
<circle cx="33.7463" cy="12.4328" r="1.77612" fill="#693B93"/>
<circle cx="44.403" cy="12.4328" r="1.77612" fill="#693B93"/>
<circle cx="55.0597" cy="12.4328" r="1.77612" fill="#693B93"/>
<circle cx="65.7164" cy="12.4328" r="1.77612" fill="#693B93"/>
<circle cx="76.3732" cy="12.4328" r="1.77612" fill="#693B93"/>
<circle cx="87.0298" cy="12.4328" r="1.77612" fill="#693B93"/>
<circle cx="97.6866" cy="12.4328" r="1.77612" fill="#693B93"/>
<circle cx="108.343" cy="12.4328" r="1.77612" fill="#693B93"/>
<circle cx="119" cy="12.4328" r="1.77612" fill="#693B93"/>
<circle cx="1.77612" cy="23.0896" r="1.77612" fill="#693B93"/>
<circle cx="12.4329" cy="23.0896" r="1.77612" fill="#693B93"/>
<circle cx="23.0895" cy="23.0896" r="1.77612" fill="#693B93"/>
<circle cx="33.7463" cy="23.0896" r="1.77612" fill="#693B93"/>
<circle cx="44.403" cy="23.0896" r="1.77612" fill="#693B93"/>
<circle cx="55.0597" cy="23.0896" r="1.77612" fill="#693B93"/>
<circle cx="65.7164" cy="23.0896" r="1.77612" fill="#693B93"/>
<circle cx="76.3732" cy="23.0896" r="1.77612" fill="#693B93"/>
<circle cx="87.0298" cy="23.0896" r="1.77612" fill="#693B93"/>
<circle cx="97.6866" cy="23.0896" r="1.77612" fill="#693B93"/>
<circle cx="108.343" cy="23.0896" r="1.77612" fill="#693B93"/>
<circle cx="119" cy="23.0896" r="1.77612" fill="#693B93"/>
<circle cx="1.77612" cy="33.7463" r="1.77612" fill="#693B93"/>
<circle cx="12.4329" cy="33.7463" r="1.77612" fill="#693B93"/>
<circle cx="23.0895" cy="33.7463" r="1.77612" fill="#693B93"/>
<circle cx="33.7463" cy="33.7463" r="1.77612" fill="#693B93"/>
<circle cx="44.403" cy="33.7463" r="1.77612" fill="#693B93"/>
<circle cx="55.0597" cy="33.7463" r="1.77612" fill="#693B93"/>
<circle cx="65.7164" cy="33.7463" r="1.77612" fill="#693B93"/>
<circle cx="76.3732" cy="33.7463" r="1.77612" fill="#693B93"/>
<circle cx="87.0298" cy="33.7463" r="1.77612" fill="#693B93"/>
<circle cx="97.6866" cy="33.7463" r="1.77612" fill="#693B93"/>
<circle cx="108.343" cy="33.7463" r="1.77612" fill="#693B93"/>
<circle cx="119" cy="33.7463" r="1.77612" fill="#693B93"/>
<circle cx="1.77612" cy="44.403" r="1.77612" fill="#693B93"/>
<circle cx="12.4329" cy="44.403" r="1.77612" fill="#693B93"/>
<circle cx="23.0895" cy="44.403" r="1.77612" fill="#693B93"/>
<circle cx="33.7463" cy="44.403" r="1.77612" fill="#693B93"/>
<circle cx="44.403" cy="44.403" r="1.77612" fill="#693B93"/>
<circle cx="55.0597" cy="44.403" r="1.77612" fill="#693B93"/>
<circle cx="65.7164" cy="44.403" r="1.77612" fill="#693B93"/>
<circle cx="76.3732" cy="44.403" r="1.77612" fill="#693B93"/>
<circle cx="87.0298" cy="44.403" r="1.77612" fill="#693B93"/>
<circle cx="97.6866" cy="44.403" r="1.77612" fill="#693B93"/>
<circle cx="108.343" cy="44.403" r="1.77612" fill="#693B93"/>
<circle cx="119" cy="44.403" r="1.77612" fill="#693B93"/>
<circle cx="1.77612" cy="55.0597" r="1.77612" fill="#693B93"/>
<circle cx="12.4329" cy="55.0597" r="1.77612" fill="#693B93"/>
<circle cx="23.0895" cy="55.0597" r="1.77612" fill="#693B93"/>
<circle cx="33.7463" cy="55.0597" r="1.77612" fill="#693B93"/>
<circle cx="44.403" cy="55.0597" r="1.77612" fill="#693B93"/>
<circle cx="55.0597" cy="55.0597" r="1.77612" fill="#693B93"/>
<circle cx="65.7164" cy="55.0597" r="1.77612" fill="#693B93"/>
<circle cx="76.3732" cy="55.0597" r="1.77612" fill="#693B93"/>
<circle cx="87.0298" cy="55.0597" r="1.77612" fill="#693B93"/>
<circle cx="97.6866" cy="55.0597" r="1.77612" fill="#693B93"/>
<circle cx="108.343" cy="55.0597" r="1.77612" fill="#693B93"/>
<circle cx="119" cy="55.0597" r="1.77612" fill="#693B93"/>
<circle cx="1.77612" cy="65.7164" r="1.77612" fill="#693B93"/>
<circle cx="12.4329" cy="65.7164" r="1.77612" fill="#693B93"/>
<circle cx="23.0895" cy="65.7164" r="1.77612" fill="#693B93"/>
<circle cx="33.7463" cy="65.7164" r="1.77612" fill="#693B93"/>
<circle cx="44.403" cy="65.7164" r="1.77612" fill="#693B93"/>
<circle cx="55.0597" cy="65.7164" r="1.77612" fill="#693B93"/>
<circle cx="65.7164" cy="65.7164" r="1.77612" fill="#693B93"/>
<circle cx="76.3732" cy="65.7164" r="1.77612" fill="#693B93"/>
<circle cx="87.0298" cy="65.7164" r="1.77612" fill="#693B93"/>
<circle cx="97.6866" cy="65.7164" r="1.77612" fill="#693B93"/>
<circle cx="108.343" cy="65.7164" r="1.77612" fill="#693B93"/>
<circle cx="119" cy="65.7164" r="1.77612" fill="#693B93"/>
<circle cx="1.77612" cy="76.3731" r="1.77612" fill="#693B93"/>
<circle cx="12.4329" cy="76.3732" r="1.77612" fill="#693B93"/>
<circle cx="23.0895" cy="76.3732" r="1.77612" fill="#693B93"/>
<circle cx="33.7463" cy="76.3732" r="1.77612" fill="#693B93"/>
<circle cx="44.403" cy="76.3732" r="1.77612" fill="#693B93"/>
<circle cx="55.0597" cy="76.3732" r="1.77612" fill="#693B93"/>
<circle cx="65.7164" cy="76.3732" r="1.77612" fill="#693B93"/>
<circle cx="76.3732" cy="76.3732" r="1.77612" fill="#693B93"/>
<circle cx="87.0298" cy="76.3732" r="1.77612" fill="#693B93"/>
<circle cx="97.6866" cy="76.3732" r="1.77612" fill="#693B93"/>
<circle cx="108.343" cy="76.3732" r="1.77612" fill="#693B93"/>
<circle cx="119" cy="76.3732" r="1.77612" fill="#693B93"/>
</g>
</svg>
