<svg width="202" height="48" viewBox="0 0 202 48" fill="none" xmlns="http://www.w3.org/2000/svg">
<g clip-path="url(#clip0_191_135)">
<path d="M66.0088 25.8653V26.8964H61.9257V37.9449H60.7858V26.8964H56.7028V25.8653H66.0088Z" fill="#0F0F0F"/>
<path d="M68.4253 37.9449V25.8653H76.5566V26.8964H69.5305V31.1763H75.876V32.1723H69.5305V36.9163H76.7254V37.9474H68.4228L68.4253 37.9449Z" fill="#0F0F0F"/>
<path d="M90.8471 34.1492V34.819C90.1492 36.8812 87.7674 38.3764 85.1994 38.3764C81.5088 38.3764 78.8365 35.6444 78.8365 31.8988C78.8365 28.1532 81.5063 25.4388 85.1994 25.4388C87.7674 25.4388 90.1318 26.9842 90.8471 29.1492V29.8191H89.9108C89.4861 27.8773 87.5116 26.5025 85.2317 26.4674C82.1694 26.4498 79.9591 28.7177 79.9591 31.8963C79.9591 35.0749 82.1694 37.3428 85.2317 37.3428C87.4769 37.3428 89.4513 36.0031 89.9431 34.1467H90.8446L90.8471 34.1492Z" fill="#0F0F0F"/>
<path d="M95.0816 31.1236H102.023V25.8653H103.163V37.9449H102.023V32.1723H95.0816V37.9449H93.9417V25.8653H95.0816V31.1236Z" fill="#0F0F0F"/>
<path d="M116.858 37.9449H115.497L107.86 27.2576V37.9449H106.787V25.8653H108.148L115.77 36.5551V25.8653H116.858V37.9449Z" fill="#0F0F0F"/>
<path d="M126.35 25.4363C130.093 25.4363 132.763 28.1332 132.763 31.8963C132.763 35.6594 130.093 38.3739 126.35 38.3739C122.607 38.3739 119.955 35.677 119.955 31.8963C119.955 28.1156 122.61 25.4363 126.35 25.4363ZM126.35 37.3453C129.412 37.3453 131.623 35.0598 131.623 31.8988C131.623 28.7378 129.412 26.4699 126.35 26.4699C123.288 26.4699 121.077 28.7553 121.077 31.8988C121.077 35.0423 123.288 37.3303 126.35 37.3453Z" fill="#0F0F0F"/>
<path d="M136.982 25.8653V36.9138H143.328V37.9449H135.842V25.8653H136.982Z" fill="#0F0F0F"/>
<path d="M150.898 25.4363C154.641 25.4363 157.31 28.1332 157.31 31.8963C157.31 35.6594 154.641 38.3739 150.898 38.3739C147.155 38.3739 144.503 35.677 144.503 31.8963C144.503 28.1156 147.157 25.4363 150.898 25.4363ZM150.898 37.3453C153.96 37.3453 156.17 35.0598 156.17 31.8988C156.17 28.7378 153.96 26.4699 150.898 26.4699C147.835 26.4699 145.625 28.7553 145.625 31.8988C145.625 35.0423 147.835 37.3303 150.898 37.3453Z" fill="#0F0F0F"/>
<path d="M166.209 32.2927V31.2967H172.435C172.691 35.4035 170.088 38.3764 166.244 38.3764C162.399 38.3764 159.849 35.6444 159.849 31.8988C159.849 28.1532 162.518 25.4388 166.244 25.4388C168.608 25.4388 170.836 26.7784 171.603 28.6525V29.3048H170.702C170.141 27.654 168.285 26.4699 166.244 26.4699C163.182 26.4523 160.971 28.7378 160.971 31.8988C160.971 35.0598 163.182 37.3127 166.244 37.3453C169.169 37.3804 171.313 35.248 171.33 32.2927H166.209Z" fill="#0F0F0F"/>
<path d="M175.547 25.8653H176.687V37.9449H175.547V25.8653Z" fill="#0F0F0F"/>
<path d="M180.311 37.9449V25.8653H188.442V26.8964H181.416V31.1763H187.762V32.1723H181.416V36.9163H188.611V37.9474H180.308L180.311 37.9449Z" fill="#0F0F0F"/>
<path d="M191.01 35.1953V34.5932H192.048C192.185 36.1913 193.682 37.3077 195.689 37.3428C197.815 37.3604 199.33 36.2089 199.33 34.6283C199.348 30.7799 190.96 34.0438 190.96 29.079C190.96 26.9139 192.764 25.4363 195.384 25.4363C197.748 25.4363 199.636 26.6053 199.961 28.3063V28.8908H198.94C198.821 27.4633 197.393 26.4674 195.436 26.4674C193.479 26.4674 192.1 27.4809 192.1 28.9761C192.1 32.8597 200.47 29.646 200.47 34.4753C200.487 36.7608 198.496 38.3764 195.741 38.3764C193.342 38.3764 191.403 37.0694 191.013 35.1978L191.01 35.1953Z" fill="#0F0F0F"/>
<path d="M63.5003 7.24779C67.5883 7.24779 70.3898 9.98986 70.3898 13.9587C70.3898 16.1012 69.5727 17.8949 68.1794 19.0716L69.7441 21.0209V22.496H67.6579L65.902 20.3008C65.1718 20.5291 64.3547 20.6521 63.5003 20.6521C59.4123 20.6521 56.6133 17.9276 56.6133 13.9587C56.6133 9.98986 59.4148 7.24779 63.5003 7.24779ZM63.5003 17.9652C65.7256 17.9652 67.2754 16.3144 67.2754 13.9587C67.2754 11.603 65.7281 9.93467 63.5003 9.93467C61.2725 9.93467 59.7253 11.5854 59.7253 13.9587C59.7253 16.332 61.2725 17.9652 63.5003 17.9652Z" fill="#0F0F0F"/>
<path d="M72.0215 16.8588V11.2016H74.7882V16.1915C74.7882 17.3154 75.4489 18.1057 76.4224 18.1057C77.396 18.1057 78.074 17.333 78.074 16.2442V11.2016H80.8407V20.2155H78.1609V18.9863C77.5177 19.9521 76.5789 20.5668 75.4116 20.5668C73.4471 20.5668 72.019 19.0038 72.019 16.8588H72.0215Z" fill="#0F0F0F"/>
<path d="M92.598 15.7148V20.213H90.0573V19.1418C89.3271 20.055 88.2666 20.5643 87.0298 20.5643C84.437 20.5643 82.6463 18.5798 82.6463 15.7148C82.6463 12.8498 84.6977 10.8479 87.6035 10.8479C90.5093 10.8479 92.5955 12.885 92.5955 15.7148H92.598ZM85.413 15.7148C85.413 17.1022 86.3344 18.1057 87.6209 18.1057C88.9074 18.1057 89.8313 17.1047 89.8313 15.7148C89.8313 14.325 88.9099 13.3064 87.6209 13.3064C86.3319 13.3064 85.413 14.3074 85.413 15.7148Z" fill="#0F0F0F"/>
<path d="M103.399 14.5558V20.213H100.632V15.2231C100.632 14.0992 99.9718 13.3089 98.9982 13.3089C98.0247 13.3089 97.3466 14.0816 97.3466 15.1704V20.213H94.5799V11.1991H97.2597V12.4284C97.903 11.4625 98.8418 10.8479 100.009 10.8479C101.974 10.8479 103.402 12.4108 103.402 14.5558H103.399Z" fill="#0F0F0F"/>
<path d="M104.39 11.1991H105.624V9.26734H108.391V11.1991H110.373V13.3064H108.391V16.8739C108.391 17.6115 108.826 18.1032 109.504 18.1032C109.782 18.1032 110.147 18.068 110.443 17.9802V20.2833C109.904 20.4589 109.173 20.5643 108.565 20.5643C106.809 20.5643 105.624 19.2296 105.624 17.2075V13.3064H104.39V11.1991Z" fill="#0F0F0F"/>
<path d="M111.871 16.8588V11.2016H114.637V16.1915C114.637 17.3154 115.298 18.1057 116.272 18.1057C117.245 18.1057 117.923 17.333 117.923 16.2442V11.2016H120.69V20.2155H118.01V18.9863C117.367 19.9521 116.428 20.5668 115.261 20.5668C113.296 20.5668 111.868 19.0038 111.868 16.8588H111.871Z" fill="#0F0F0F"/>
<path d="M125.679 12.2904C126.218 11.3772 127.209 10.8504 128.29 10.8504C129.576 10.8504 130.619 11.465 131.143 12.4484C131.7 11.465 132.899 10.8679 134.119 10.8679C136.135 10.8679 137.529 12.3606 137.529 14.5056V20.2155H134.762V15.1027C134.762 14.1017 134.136 13.3466 133.197 13.3115C132.241 13.3115 131.598 14.049 131.598 15.1027V20.2155H128.831V15.1027C128.831 14.0315 128.24 13.3115 127.336 13.3115C126.432 13.3115 125.789 14.0315 125.789 15.1027V20.2155H123.022V11.2016H125.684V12.2904H125.679Z" fill="#0F0F0F"/>
<path d="M152.343 7.68682L155.91 18.5096V20.213H153.178L152.534 18.1935H147.629L146.986 20.213H144.254V18.5096L147.821 7.68682H152.343ZM148.238 15.9632H151.943L150.083 10.3586L148.24 15.9632H148.238Z" fill="#0F0F0F"/>
<path d="M157.179 18.5623V17.4208H159.439C159.56 18.1408 160.291 18.6325 161.229 18.6325C162.168 18.6325 162.759 18.211 162.759 17.5964C162.759 15.893 156.95 17.8247 156.95 13.8709C156.95 12.0972 158.619 10.8479 161.021 10.8479C162.951 10.8479 164.552 11.5679 164.952 12.604V13.6401H162.707C162.655 13.1308 161.977 12.7796 161.073 12.7796C160.221 12.7796 159.613 13.1308 159.613 13.6577C159.613 15.2206 165.422 13.5172 165.422 17.2954C165.422 19.2271 163.648 20.5643 161.108 20.5643C159.265 20.5643 157.646 19.7389 157.176 18.5623H157.179Z" fill="#0F0F0F"/>
<path d="M166.693 18.5623V17.4208H168.953C169.075 18.1408 169.805 18.6325 170.744 18.6325C171.683 18.6325 172.274 18.211 172.274 17.5964C172.274 15.893 166.465 17.8247 166.465 13.8709C166.465 12.0972 168.134 10.8479 170.535 10.8479C172.465 10.8479 174.067 11.5679 174.467 12.604V13.6401H172.222C172.17 13.1308 171.492 12.7796 170.588 12.7796C169.736 12.7796 169.127 13.1308 169.127 13.6577C169.127 15.2206 174.936 13.5172 174.936 17.2954C174.936 19.2271 173.163 20.5643 170.622 20.5643C168.78 20.5643 167.16 19.7389 166.691 18.5623H166.693Z" fill="#0F0F0F"/>
<path d="M185.879 15.6797C185.879 16.0134 185.844 16.5402 185.792 16.7861H179.024C179.337 17.8046 180.085 18.4544 181.113 18.4544C181.982 18.4544 182.765 18.0329 183.008 17.4183H185.233V18.4368C184.66 19.7364 182.936 20.5618 181.058 20.5618C178.118 20.5618 176.101 18.5422 176.101 15.6421C176.101 12.742 178.153 10.8453 181.128 10.8453C183.929 10.8453 185.877 12.8298 185.877 15.6772L185.879 15.6797ZM178.885 15.1704H183.095C183.078 13.9236 182.208 12.9577 180.974 12.9577C179.809 12.9577 179.044 13.8533 178.888 15.1704H178.885Z" fill="#0F0F0F"/>
<path d="M186.52 11.1991H187.754V9.26734H190.521V11.1991H192.503V13.3064H190.521V16.8739C190.521 17.6115 190.955 18.1032 191.633 18.1032C191.912 18.1032 192.277 18.068 192.572 17.9802V20.2833C192.033 20.4589 191.303 20.5643 190.695 20.5643C188.939 20.5643 187.754 19.2296 187.754 17.2075V13.3064H186.52V11.1991Z" fill="#0F0F0F"/>
<path d="M193.757 18.5623V17.4208H196.017C196.139 18.1408 196.869 18.6325 197.808 18.6325C198.746 18.6325 199.338 18.211 199.338 17.5964C199.338 15.893 193.528 17.8247 193.528 13.8709C193.528 12.0972 195.197 10.8479 197.599 10.8479C199.529 10.8479 201.131 11.5679 201.531 12.604V13.6401H199.285C199.233 13.1308 198.555 12.7796 197.651 12.7796C196.799 12.7796 196.191 13.1308 196.191 13.6577C196.191 15.2206 202 13.5172 202 17.2954C202 19.2271 200.227 20.5643 197.686 20.5643C195.843 20.5643 194.224 19.7389 193.754 18.5623H193.757Z" fill="#0F0F0F"/>
<path d="M47.3521 36.4296L45.2112 34.2671C46.6765 31.1512 47.5209 27.6791 47.5209 23.9987C47.5209 10.745 36.8813 0 23.7605 0C10.6397 0 0 10.745 0 23.9987C0 37.2525 10.6397 48 23.7605 48C28.0596 48 32.083 46.8284 35.56 44.8114C37.2761 43.8154 38.8607 42.6162 40.2738 41.2339L33.9531 34.8115L23.763 24.4553V37.24L26.6712 35.8275L28.8394 38.0177C27.2524 38.6022 25.5487 38.9409 23.763 38.9409C15.5944 38.9409 8.97071 32.25 8.97071 23.9987C8.97071 15.7475 15.5944 9.0566 23.763 9.0566C31.9315 9.0566 38.5577 15.7475 38.5577 23.9987C38.5577 25.0951 38.4335 26.1613 38.2125 27.1899C37.7555 29.3023 36.8514 31.2415 35.6146 32.9174L41.9875 39.3925L50.2678 47.8043V35.0172L47.3595 36.4296H47.3521Z" fill="#693B93"/>
</g>
<defs>
<clipPath id="clip0_191_135">
<rect width="202" height="48" fill="white"/>
</clipPath>
</defs>
</svg>
