<svg width="44" height="44" viewBox="0 0 44 44" fill="none" xmlns="http://www.w3.org/2000/svg">
<path d="M22 23.8333C23.0125 23.8333 23.8334 23.0125 23.8334 22C23.8334 20.9874 23.0125 20.1666 22 20.1666C20.9875 20.1666 20.1667 20.9874 20.1667 22C20.1667 23.0125 20.9875 23.8333 22 23.8333Z" stroke="#693B93" stroke-width="3" stroke-linecap="round" stroke-linejoin="round"/>
<path d="M37.0333 37.0333C40.7733 33.3116 37.07 23.54 28.7833 15.2166C20.46 6.92997 10.6883 3.22664 6.96664 6.96664C3.22664 10.6883 6.92997 20.46 15.2166 28.7833C23.54 37.07 33.3116 40.7733 37.0333 37.0333Z" stroke="#693B93" stroke-width="3" stroke-linecap="round" stroke-linejoin="round"/>
<path d="M28.7833 28.7833C37.07 20.46 40.7733 10.6883 37.0333 6.96664C33.3116 3.22664 23.54 6.92997 15.2166 15.2166C6.92997 23.54 3.22664 33.3116 6.96664 37.0333C10.6883 40.7733 20.46 37.07 28.7833 28.7833Z" stroke="#693B93" stroke-width="3" stroke-linecap="round" stroke-linejoin="round"/>
</svg>
