<svg width="73" height="48" viewBox="0 0 73 48" fill="none" xmlns="http://www.w3.org/2000/svg">
<g opacity="0.3">
<circle cx="1.07362" cy="1.07362" r="1.07362" fill="#693B93"/>
<circle cx="7.51543" cy="1.07362" r="1.07362" fill="#693B93"/>
<circle cx="13.9572" cy="1.07362" r="1.07362" fill="#693B93"/>
<circle cx="20.3989" cy="1.07362" r="1.07362" fill="#693B93"/>
<circle cx="26.8407" cy="1.07362" r="1.07362" fill="#693B93"/>
<circle cx="33.2824" cy="1.07362" r="1.07362" fill="#693B93"/>
<circle cx="39.7242" cy="1.07362" r="1.07362" fill="#693B93"/>
<circle cx="46.1659" cy="1.07362" r="1.07362" fill="#693B93"/>
<circle cx="52.6077" cy="1.07362" r="1.07362" fill="#693B93"/>
<circle cx="59.0494" cy="1.07362" r="1.07362" fill="#693B93"/>
<circle cx="65.4911" cy="1.07362" r="1.07362" fill="#693B93"/>
<circle cx="71.9329" cy="1.07362" r="1.07362" fill="#693B93"/>
<circle cx="1.07369" cy="7.51537" r="1.07362" fill="#693B93"/>
<circle cx="7.51549" cy="7.51534" r="1.07362" fill="#693B93"/>
<circle cx="13.9573" cy="7.51534" r="1.07362" fill="#693B93"/>
<circle cx="20.3989" cy="7.51534" r="1.07362" fill="#693B93"/>
<circle cx="26.8407" cy="7.51534" r="1.07362" fill="#693B93"/>
<circle cx="33.2825" cy="7.51534" r="1.07362" fill="#693B93"/>
<circle cx="39.7242" cy="7.51534" r="1.07362" fill="#693B93"/>
<circle cx="46.166" cy="7.51534" r="1.07362" fill="#693B93"/>
<circle cx="52.6077" cy="7.51534" r="1.07362" fill="#693B93"/>
<circle cx="59.0495" cy="7.51534" r="1.07362" fill="#693B93"/>
<circle cx="65.4912" cy="7.51534" r="1.07362" fill="#693B93"/>
<circle cx="71.9329" cy="7.51534" r="1.07362" fill="#693B93"/>
<circle cx="1.07369" cy="13.9571" r="1.07362" fill="#693B93"/>
<circle cx="7.51549" cy="13.9571" r="1.07362" fill="#693B93"/>
<circle cx="13.9573" cy="13.9571" r="1.07362" fill="#693B93"/>
<circle cx="20.3989" cy="13.9571" r="1.07362" fill="#693B93"/>
<circle cx="26.8407" cy="13.9571" r="1.07362" fill="#693B93"/>
<circle cx="33.2825" cy="13.9571" r="1.07362" fill="#693B93"/>
<circle cx="39.7242" cy="13.9571" r="1.07362" fill="#693B93"/>
<circle cx="46.166" cy="13.9571" r="1.07362" fill="#693B93"/>
<circle cx="52.6077" cy="13.9571" r="1.07362" fill="#693B93"/>
<circle cx="59.0495" cy="13.9571" r="1.07362" fill="#693B93"/>
<circle cx="65.4912" cy="13.9571" r="1.07362" fill="#693B93"/>
<circle cx="71.9329" cy="13.9571" r="1.07362" fill="#693B93"/>
<circle cx="1.07369" cy="20.3988" r="1.07362" fill="#693B93"/>
<circle cx="7.51549" cy="20.3988" r="1.07362" fill="#693B93"/>
<circle cx="13.9573" cy="20.3988" r="1.07362" fill="#693B93"/>
<circle cx="20.3989" cy="20.3988" r="1.07362" fill="#693B93"/>
<circle cx="26.8407" cy="20.3988" r="1.07362" fill="#693B93"/>
<circle cx="33.2825" cy="20.3988" r="1.07362" fill="#693B93"/>
<circle cx="39.7242" cy="20.3988" r="1.07362" fill="#693B93"/>
<circle cx="46.166" cy="20.3988" r="1.07362" fill="#693B93"/>
<circle cx="52.6077" cy="20.3988" r="1.07362" fill="#693B93"/>
<circle cx="59.0495" cy="20.3988" r="1.07362" fill="#693B93"/>
<circle cx="65.4912" cy="20.3988" r="1.07362" fill="#693B93"/>
<circle cx="71.9329" cy="20.3988" r="1.07362" fill="#693B93"/>
<circle cx="1.07369" cy="26.8406" r="1.07362" fill="#693B93"/>
<circle cx="7.51549" cy="26.8406" r="1.07362" fill="#693B93"/>
<circle cx="13.9573" cy="26.8406" r="1.07362" fill="#693B93"/>
<circle cx="20.3989" cy="26.8406" r="1.07362" fill="#693B93"/>
<circle cx="26.8407" cy="26.8406" r="1.07362" fill="#693B93"/>
<circle cx="33.2825" cy="26.8406" r="1.07362" fill="#693B93"/>
<circle cx="39.7242" cy="26.8406" r="1.07362" fill="#693B93"/>
<circle cx="46.166" cy="26.8406" r="1.07362" fill="#693B93"/>
<circle cx="52.6077" cy="26.8406" r="1.07362" fill="#693B93"/>
<circle cx="59.0495" cy="26.8406" r="1.07362" fill="#693B93"/>
<circle cx="65.4912" cy="26.8406" r="1.07362" fill="#693B93"/>
<circle cx="71.9329" cy="26.8406" r="1.07362" fill="#693B93"/>
<circle cx="1.07369" cy="33.2823" r="1.07362" fill="#693B93"/>
<circle cx="7.51549" cy="33.2823" r="1.07362" fill="#693B93"/>
<circle cx="13.9573" cy="33.2823" r="1.07362" fill="#693B93"/>
<circle cx="20.3989" cy="33.2823" r="1.07362" fill="#693B93"/>
<circle cx="26.8407" cy="33.2823" r="1.07362" fill="#693B93"/>
<circle cx="33.2825" cy="33.2823" r="1.07362" fill="#693B93"/>
<circle cx="39.7242" cy="33.2823" r="1.07362" fill="#693B93"/>
<circle cx="46.166" cy="33.2823" r="1.07362" fill="#693B93"/>
<circle cx="52.6077" cy="33.2823" r="1.07362" fill="#693B93"/>
<circle cx="59.0495" cy="33.2823" r="1.07362" fill="#693B93"/>
<circle cx="65.4912" cy="33.2823" r="1.07362" fill="#693B93"/>
<circle cx="71.9329" cy="33.2823" r="1.07362" fill="#693B93"/>
<circle cx="1.07369" cy="39.7241" r="1.07362" fill="#693B93"/>
<circle cx="7.51549" cy="39.7241" r="1.07362" fill="#693B93"/>
<circle cx="13.9573" cy="39.7241" r="1.07362" fill="#693B93"/>
<circle cx="20.3989" cy="39.7241" r="1.07362" fill="#693B93"/>
<circle cx="26.8407" cy="39.7241" r="1.07362" fill="#693B93"/>
<circle cx="33.2825" cy="39.7241" r="1.07362" fill="#693B93"/>
<circle cx="39.7242" cy="39.7241" r="1.07362" fill="#693B93"/>
<circle cx="46.166" cy="39.7241" r="1.07362" fill="#693B93"/>
<circle cx="52.6077" cy="39.7241" r="1.07362" fill="#693B93"/>
<circle cx="59.0495" cy="39.7241" r="1.07362" fill="#693B93"/>
<circle cx="65.4912" cy="39.7241" r="1.07362" fill="#693B93"/>
<circle cx="71.9329" cy="39.7241" r="1.07362" fill="#693B93"/>
<circle cx="1.07369" cy="46.1658" r="1.07362" fill="#693B93"/>
<circle cx="7.51549" cy="46.1658" r="1.07362" fill="#693B93"/>
<circle cx="13.9573" cy="46.1658" r="1.07362" fill="#693B93"/>
<circle cx="20.3989" cy="46.1658" r="1.07362" fill="#693B93"/>
<circle cx="26.8407" cy="46.1658" r="1.07362" fill="#693B93"/>
<circle cx="33.2825" cy="46.1658" r="1.07362" fill="#693B93"/>
<circle cx="39.7242" cy="46.1658" r="1.07362" fill="#693B93"/>
<circle cx="46.166" cy="46.1658" r="1.07362" fill="#693B93"/>
<circle cx="52.6077" cy="46.1658" r="1.07362" fill="#693B93"/>
<circle cx="59.0495" cy="46.1658" r="1.07362" fill="#693B93"/>
<circle cx="65.4912" cy="46.1658" r="1.07362" fill="#693B93"/>
<circle cx="71.9329" cy="46.1658" r="1.07362" fill="#693B93"/>
</g>
</svg>
