<svg width="44" height="44" viewBox="0 0 44 44" fill="none" xmlns="http://www.w3.org/2000/svg">
<path d="M36.6666 23.8333C36.6666 33 30.25 37.5833 22.6233 40.2417C22.2239 40.377 21.7901 40.3705 21.395 40.2233C13.75 37.5833 7.33331 33 7.33331 23.8333V11C7.33331 10.5138 7.52647 10.0474 7.87028 9.70363C8.2141 9.35981 8.68042 9.16666 9.16665 9.16666C12.8333 9.16666 17.4166 6.96666 20.6066 4.17999C20.995 3.84815 21.4891 3.66583 22 3.66583C22.5108 3.66583 23.0049 3.84815 23.3933 4.17999C26.6016 6.98499 31.1666 9.16666 34.8333 9.16666C35.3195 9.16666 35.7859 9.35981 36.1297 9.70363C36.4735 10.0474 36.6666 10.5138 36.6666 11V23.8333Z" stroke="#693B93" stroke-width="3" stroke-linecap="round" stroke-linejoin="round"/>
</svg>
